
<global>
amp_veltrack=0
ampeg_release=0.75
</global>

<group>
group_label=PP
xf_cccurve=gain
xfin_hicc1=42
xfout_hicc1=85
xfout_locc1=42

<region>
end=374399
hikey=G6
hivel=127
lokey=F#6
loop_end=298228
loop_mode=loop_continuous
loop_start=130992
loop_xfade=49051
lovel=0
offset=13127
pitch_keycenter=G6
release_start=303048
release_xfade=12000
sample=Violins2_harmonics_PP_G5.opus
</region>

<region>
end=369500
hikey=G5
hivel=127
lokey=C5
loop_end=294326
loop_mode=loop_continuous
loop_start=129278
loop_xfade=48409
lovel=0
offset=14033
pitch_keycenter=G5
release_start=288000
release_xfade=12000
sample=Violins2_harmonics_PP_G4.opus
</region>

<region>
end=374194
hikey=F6
hivel=127
lokey=E6
loop_end=298065
loop_mode=loop_continuous
loop_start=130920
loop_xfade=49024
lovel=0
offset=10103
pitch_keycenter=F6
release_start=299281
release_xfade=12000
sample=Violins2_harmonics_PP_F5.opus
</region>

<region>
end=326399
hikey=C8
hivel=127
lokey=D7
loop_end=302487
loop_mode=loop_continuous
loop_start=114198
loop_xfade=42762
lovel=0
offset=12673
pitch_keycenter=D#7
release_start=293563
release_xfade=12000
sample=Violins2_harmonics_PP_D#6.opus
</region>

<region>
end=374399
hikey=D#6
hivel=127
lokey=D6
loop_end=298228
loop_mode=loop_continuous
loop_start=130992
loop_xfade=49051
lovel=0
offset=10108
pitch_keycenter=D#6
release_start=301829
release_xfade=12000
sample=Violins2_harmonics_PP_D#5.opus
</region>

<region>
end=374399
hikey=C#7
hivel=127
lokey=C7
loop_end=298228
loop_mode=loop_continuous
loop_start=130992
loop_xfade=49051
lovel=0
offset=13635
pitch_keycenter=C#7
release_start=296575
release_xfade=12000
sample=Violins2_harmonics_PP_C#6.opus
</region>

<region>
end=374399
hikey=C#6
hivel=127
lokey=C6
loop_end=298228
loop_mode=loop_continuous
loop_start=130992
loop_xfade=49051
lovel=0
offset=15287
pitch_keycenter=C#6
release_start=295674
release_xfade=12000
sample=Violins2_harmonics_PP_C#5.opus
</region>

<region>
end=374399
hikey=B6
hivel=127
lokey=A#6
loop_end=298228
loop_mode=loop_continuous
loop_start=130992
loop_xfade=49051
lovel=0
offset=12433
pitch_keycenter=B6
release_start=300696
release_xfade=12000
sample=Violins2_harmonics_PP_B5.opus
</region>

<region>
end=374399
hikey=B5
hivel=127
lokey=A#5
loop_end=298228
loop_mode=loop_continuous
loop_start=130992
loop_xfade=49051
lovel=0
offset=10982
pitch_keycenter=B5
release_start=288000
release_xfade=12000
sample=Violins2_harmonics_PP_B4.opus
</region>

<region>
end=374141
hikey=A6
hivel=127
lokey=G#6
loop_end=298022
loop_mode=loop_continuous
loop_start=130901
loop_xfade=49017
lovel=0
offset=15677
pitch_keycenter=A6
release_start=305836
release_xfade=12000
sample=Violins2_harmonics_PP_A5.opus
</region>

<region>
end=372718
hikey=A5
hivel=127
lokey=G#5
loop_end=296889
loop_mode=loop_continuous
loop_start=130403
loop_xfade=48831
lovel=0
offset=8764
pitch_keycenter=A5
release_start=288000
release_xfade=12000
sample=Violins2_harmonics_PP_A4.opus
</region>
</group>

<group>
group_label=MF
xf_cccurve=gain
xfin_hicc1=85
xfin_locc1=42
xfout_hicc1=127
xfout_locc1=85

<region>
end=374399
hikey=G6
hivel=127
lokey=F#6
loop_end=298228
loop_mode=loop_continuous
loop_start=130992
loop_xfade=49051
lovel=0
offset=17061
pitch_keycenter=G6
release_start=302710
release_xfade=12000
sample=Violins2_harmonics_MF_G5.opus
</region>

<region>
end=371623
hikey=G5
hivel=127
lokey=C5
loop_end=296017
loop_mode=loop_continuous
loop_start=130020
loop_xfade=48688
lovel=0
offset=17628
pitch_keycenter=G5
release_start=308167
release_xfade=12000
sample=Violins2_harmonics_MF_G4.opus
</region>

<region>
end=374399
hikey=F6
hivel=127
lokey=E6
loop_end=298228
loop_mode=loop_continuous
loop_start=130992
loop_xfade=49051
lovel=0
offset=12695
pitch_keycenter=F6
release_start=302250
release_xfade=12000
sample=Violins2_harmonics_MF_F5.opus
</region>

<region>
end=322404
hikey=C8
hivel=127
lokey=D7
loop_end=286337
loop_mode=loop_continuous
loop_start=112800
loop_xfade=42239
lovel=0
offset=8658
pitch_keycenter=D#7
release_start=303833
release_xfade=12000
sample=Violins2_harmonics_MF_D#6.opus
</region>

<region>
end=374399
hikey=D#6
hivel=127
lokey=D6
loop_end=298228
loop_mode=loop_continuous
loop_start=130992
loop_xfade=49051
lovel=0
offset=12497
pitch_keycenter=D#6
release_start=308423
release_xfade=12000
sample=Violins2_harmonics_MF_D#5.opus
</region>

<region>
end=356050
hikey=C#7
hivel=127
lokey=C7
loop_end=305534
loop_mode=loop_continuous
loop_start=124572
loop_xfade=46647
lovel=0
offset=9561
pitch_keycenter=C#7
release_start=312647
release_xfade=12000
sample=Violins2_harmonics_MF_C#6.opus
</region>

<region>
end=372002
hikey=C#6
hivel=127
lokey=C6
loop_end=296319
loop_mode=loop_continuous
loop_start=130153
loop_xfade=48737
lovel=0
offset=14983
pitch_keycenter=C#6
release_start=309128
release_xfade=12000
sample=Violins2_harmonics_MF_C#5.opus
</region>

<region>
end=371904
hikey=B6
hivel=127
lokey=A#6
loop_end=296241
loop_mode=loop_continuous
loop_start=130119
loop_xfade=48724
lovel=0
offset=9206
pitch_keycenter=B6
release_start=307342
release_xfade=12000
sample=Violins2_harmonics_MF_B5.opus
</region>

<region>
end=373344
hikey=B5
hivel=127
lokey=A#5
loop_end=297388
loop_mode=loop_continuous
loop_start=130623
loop_xfade=48913
lovel=0
offset=14476
pitch_keycenter=B5
release_start=310633
release_xfade=12000
sample=Violins2_harmonics_MF_B4.opus
</region>

<region>
end=373452
hikey=A6
hivel=127
lokey=G#6
loop_end=297474
loop_mode=loop_continuous
loop_start=130660
loop_xfade=48927
lovel=0
offset=16162
pitch_keycenter=A6
release_start=311742
release_xfade=12000
sample=Violins2_harmonics_MF_A5.opus
</region>

<region>
end=362378
hikey=A5
hivel=127
lokey=G#5
loop_end=288653
loop_mode=loop_continuous
loop_start=126786
loop_xfade=47476
lovel=0
offset=7979
pitch_keycenter=A5
release_start=288000
release_xfade=12000
sample=Violins2_harmonics_MF_A4.opus
</region>
</group>

<group>
group_label=FF
xf_cccurve=gain
xfin_hicc1=127
xfin_locc1=85
xfout_hicc1=127
xfout_locc1=127

<region>
end=350701
hikey=G6
hivel=127
lokey=F#6
loop_end=303275
loop_mode=loop_continuous
loop_start=122700
loop_xfade=45946
lovel=0
pitch_keycenter=G6
release_start=303552
release_xfade=12000
sample=Violins2_harmonics_FF_G5.opus
</region>

<region>
end=313542
hikey=G5
hivel=127
lokey=C5
loop_end=280880
loop_mode=loop_continuous
loop_start=109699
loop_xfade=41078
lovel=0
pitch_keycenter=G5
release_start=288000
release_xfade=12000
sample=Violins2_harmonics_FF_G4.opus
</region>

<region>
end=357343
hikey=F6
hivel=127
lokey=E6
loop_end=299643
loop_mode=loop_continuous
loop_start=125024
loop_xfade=46817
lovel=0
offset=7576
pitch_keycenter=F6
release_start=303400
release_xfade=12000
sample=Violins2_harmonics_FF_F5.opus
</region>

<region>
end=309954
hikey=C8
hivel=127
lokey=D7
loop_end=286376
loop_mode=loop_continuous
loop_start=108444
loop_xfade=40608
lovel=0
pitch_keycenter=D#7
release_start=288000
release_xfade=12000
sample=Violins2_harmonics_FF_D#6.opus
</region>

<region>
end=338131
hikey=D#6
hivel=127
lokey=D6
loop_end=293141
loop_mode=loop_continuous
loop_start=118302
loop_xfade=44300
lovel=0
pitch_keycenter=D#6
release_start=288000
release_xfade=12000
sample=Violins2_harmonics_FF_D#5.opus
</region>

<region>
end=336637
hikey=C#7
hivel=127
lokey=C7
loop_end=291940
loop_mode=loop_continuous
loop_start=117780
loop_xfade=44104
lovel=0
pitch_keycenter=C#7
release_start=288000
release_xfade=12000
sample=Violins2_harmonics_FF_C#6.opus
</region>

<region>
end=337094
hikey=C#6
hivel=127
lokey=C6
loop_end=302917
loop_mode=loop_continuous
loop_start=117940
loop_xfade=44164
lovel=0
offset=6171
pitch_keycenter=C#6
release_start=303532
release_xfade=12000
sample=Violins2_harmonics_FF_C#5.opus
</region>

<region>
end=341410
hikey=B6
hivel=127
lokey=A#6
loop_end=294645
loop_mode=loop_continuous
loop_start=119450
loop_xfade=44729
lovel=0
pitch_keycenter=B6
release_start=301280
release_xfade=12000
sample=Violins2_harmonics_FF_B5.opus
</region>

<region>
end=352068
hikey=B5
hivel=127
lokey=A#5
loop_end=293891
loop_mode=loop_continuous
loop_start=123179
loop_xfade=46125
lovel=0
pitch_keycenter=B5
release_start=288549
release_xfade=12000
sample=Violins2_harmonics_FF_B4.opus
</region>

<region>
end=328017
hikey=A6
hivel=127
lokey=G#6
loop_end=290455
loop_mode=loop_continuous
loop_start=114764
loop_xfade=42974
lovel=0
pitch_keycenter=A6
release_start=292064
release_xfade=12000
sample=Violins2_harmonics_FF_A5.opus
</region>

<region>
end=324083
hikey=A5
hivel=127
lokey=G#5
loop_end=283582
loop_mode=loop_continuous
loop_start=113387
loop_xfade=42459
lovel=0
pitch_keycenter=A5
release_start=289603
release_xfade=12000
sample=Violins2_harmonics_FF_A4.opus
</region>
</group>